inDegrees=no
num_controls=7
num_derivatives=13
num_iterations=254
num_multipliers=7
num_parameters=0
num_slacks=7
num_states=26
objective=0.260427
objective_accelerations=0.000000
objective_balance=0.005602
objective_effort=0.057857
objective_height=0.196968
objective_ligament=0.000000
solver_duration=3384.986705
status=Solve_Succeeded
success=true
DataType=double
version=3
OpenSimVersion=4.5
endheader
time	/jointset/ground_pelvis/pelvis_tilt/value	/jointset/ground_pelvis/pelvis_tx/value	/jointset/ground_pelvis/pelvis_ty/value	/jointset/hip_l/hip_flexion_l/value	/jointset/hip_l/hip_adduction_l/value	/jointset/hip_l/hip_rotation_l/value	/jointset/back/lumbar_extension/value	/jointset/patellofemoral_l/patellar_flexion_l/value	/jointset/knee_l/knee_flexion_l/value	/jointset/knee_l/knee_adduction_l/value	/jointset/knee_l/knee_rotation_l/value	/jointset/ankle_l/ankle_angle_l/value	/jointset/subtalar_l/subtalar_angle_l/value	/jointset/ground_pelvis/pelvis_tilt/speed	/jointset/ground_pelvis/pelvis_tx/speed	/jointset/ground_pelvis/pelvis_ty/speed	/jointset/hip_l/hip_flexion_l/speed	/jointset/hip_l/hip_adduction_l/speed	/jointset/hip_l/hip_rotation_l/speed	/jointset/back/lumbar_extension/speed	/jointset/patellofemoral_l/patellar_flexion_l/speed	/jointset/knee_l/knee_flexion_l/speed	/jointset/knee_l/knee_adduction_l/speed	/jointset/knee_l/knee_rotation_l/speed	/jointset/ankle_l/ankle_angle_l/speed	/jointset/subtalar_l/subtalar_angle_l/speed	/forceset/tau_hip_flexion_l	/forceset/tau_hip_adduction_l	/forceset/tau_hip_rotation_l	/forceset/tau_knee_flexion_l	/forceset/tau_ankle_angle_l	/forceset/tau_subtalar_angle_l	/forceset/tau_lumbar_extension	lambda_cid13_p0	lambda_cid13_p1	lambda_cid13_p2	lambda_cid13_p3	lambda_cid13_p4	lambda_cid13_p5	lambda_cid14_p0	/jointset/ground_pelvis/pelvis_tilt/accel	/jointset/ground_pelvis/pelvis_tx/accel	/jointset/ground_pelvis/pelvis_ty/accel	/jointset/hip_l/hip_flexion_l/accel	/jointset/hip_l/hip_adduction_l/accel	/jointset/hip_l/hip_rotation_l/accel	/jointset/back/lumbar_extension/accel	/jointset/patellofemoral_l/patellar_flexion_l/accel	/jointset/knee_l/knee_flexion_l/accel	/jointset/knee_l/knee_adduction_l/accel	/jointset/knee_l/knee_rotation_l/accel	/jointset/ankle_l/ankle_angle_l/accel	/jointset/subtalar_l/subtalar_angle_l/accel	gamma_cid13_p0	gamma_cid13_p1	gamma_cid13_p2	gamma_cid13_p3	gamma_cid13_p4	gamma_cid13_p5	gamma_cid14_p0
1	-0.1790219316796432	-0.01695144662499029	0.3975425683394022	2.09439076050204	-0.2346661194486148	0.1062596103998488	-0.4363316020082827	2.094394659813147	2.094394659813143	0.1744869463356834	0.1742483388032294	0.4363013349668737	0.1480933210992778	-0.001351821723871741	-0.0001949175766116376	9.007156932194975e-06	0.0001277759559047806	0.005205875126985188	-0.006636956197089993	0.000214137541949488	0.0003044072203517253	0.0003044072203516986	0.01058817716843649	-0.01372497017823989	0.001292300258124169	0.009590570637601891	-0.1266966553879332	-0.02088128785029782	-0.06446818412680383	-0.4709941230500411	0.1162673797874684	0.01789107277874007	0.1619325525344324	-3.135122184200378	1.203369011612719	-10.21710242317603	0.13107748838055	-629.9425899776958	-60.27521110197232	-0.02164594950390741	-0.06801868065860724	-0.003681504345602834	-0.005646225133082232	0.05209588668030468	0.1102069540893608	0.1402194430677434	0.08743712169693958	-0.004616480685334431	-0.004616480685334458	-0.0410044827289729	-0.17205435782972	0.0166719219784867	0.1899570567994502	-1.565714054532022e-07	9.587224245649796e-08	4.730647521871683e-08	-7.956197547867283e-08	1.254894632605699e-07	6.006450350828642e-07	-1.360390645432239e-07
1.01	-0.1790373707044319	-0.01695351838974686	0.397542493997371	2.094393559191687	-0.2346119615424069	0.1062595581192004	-0.4363267087356621	2.094394371394317	2.094394371394309	0.1745318556251511	0.1741343072943234	0.4363138724524633	0.1481906791529385	-0.001593098464915088	-0.0002136437764936411	-1.324855211655267e-05	0.000307931768074181	0.005406782143345277	0.01142251485180516	0.0006083110699758409	-0.000599314178825017	-0.0005993141788250575	-0.00631932110547565	-0.006631509146621257	0.001144474649861923	0.00933950502709429	-0.1267614077801378	-0.02115639628482237	-0.06363335948384877	-0.4709370593679705	0.1162264258939057	0.01787786875347996	0.1618981931408443	-3.14393815240941	1.223859836063572	-10.23546147995356	0.215339190383416	-629.7756179242949	-60.17596762037701	-0.021647690414479	0.01917220817317416	-0.0001311705732237712	0.001129405375697282	-0.01770090905226597	-0.05781768652850255	3.35818931441878	-0.008023418658531786	-0.1687785264090007	-0.1687785264090063	-3.222624986181883	1.51746703184142	-0.04117832923141582	-0.2139026918047953	-3.158930229033733e-07	1.89537483438344e-07	9.667431151995611e-08	-1.578715011348721e-07	2.517126088182965e-07	1.197598585113816e-06	-2.732240425625121e-07
1.02	-0.1790509516208312	-0.01695561001505503	0.3975425260280825	2.094394424171946	-0.2345623646184229	0.1065839762247646	-0.4363225599051575	2.094377940050121	2.094377940050122	0.1742662894345953	0.17416469453537	0.4363227979765631	0.1482692736861284	-0.0009802000459415284	-0.0001988896869321001	3.028170549840418e-05	-0.0002589659212570956	0.004293678682191902	0.05825712104543557	6.524911744305818e-05	-0.002924177853007853	-0.002924177853007909	-0.0515069188377698	0.01515877981234804	0.0005699079614862971	0.005837866543429514	-0.1268261601723426	-0.02143150471934695	-0.06279853484089265	-0.4708799956858998	0.1161854720003433	0.01786466472821987	0.1618638337472558	-3.147484296683947	1.21182199893758	-10.21253263178907	0.2552978338858513	-629.5846047359087	-60.28520724726887	-0.02164228941498359	0.1028163513447891	0.003014553543108197	0.007510968199654413	-0.09731481361983135	-0.1525951414133307	5.895246472014793	-0.1000099744149182	-0.2888449356865352	-0.2888449356865355	-5.69702437440537	2.76731122764041	-0.06867629404418525	-0.4601575178319804	-5.433930546554237e-07	3.472481417371209e-07	1.654460792614854e-07	-2.843403503763004e-07	4.38934438266773e-07	2.141868934173062e-06	-4.767334820998985e-07
1.03	-0.1790568435792788	-0.0169574304044705	0.39754308984836	2.094388688624742	-0.2345263324831893	0.1073108131055589	-0.4363254233355096	2.094341676423183	2.094341676423188	0.1736091612124758	0.1743906358351858	0.4363261284418914	0.1483107168916669	-0.0003147010914726012	-0.00016221833509674	7.040755662696227e-05	-0.0007035603185653269	0.002898177470592156	0.0729765528264297	-0.0004943399914728447	-0.003652870739107774	-0.00365287073910776	-0.06657907380871625	0.02419924544701325	0.0001671381352550563	0.002867332937047498	-0.1267320528736133	-0.02147116969883662	-0.06474076393138416	-0.470640541798361	0.1160028778004623	0.01776344021640816	0.1618973955969686	-3.213486763673245	1.225451748012434	-10.16686199503719	0.08251674179638059	-629.7464273818814	-60.53060952206182	-0.0216462253425451	0.03074538222119392	0.004355875554218547	0.0005786687282972455	0.009477418331921176	-0.1352394188712941	-2.859824984960113	-0.01239409975770061	0.1366074756962707	0.1366074756962758	2.588503162873707	-0.9022562985456195	-0.01558100565840523	-0.1531076567536701	-7.715887845125956e-07	5.056123247023973e-07	2.344158463034259e-07	-4.11300621286966e-07	6.267787032651554e-07	3.089683332201986e-06	-6.809197018568576e-07
